<svg version="1.0" xmlns="http://www.w3.org/2000/svg" width="300.000000pt" height="300.000000pt" viewBox="0 0 300.000000 300.000000" preserveAspectRatio="xMidYMid meet">
<g transform="translate(0.000000,300.000000) scale(0.100000,-0.100000)" fill="#000000" stroke="none">
<path d="M270 1618 c0 -625 4 -976 10 -1000 18 -62 71 -128 130 -162 l55 -31 1035 0 1035 0 41 22 c53 28 99 74 127 127 l22 41 3 983 2 982 -1230 0 -1230 0 0 -962z m2400 331 l0 -570 -132 155 c-73 86 -135 156 -138 156 -3 0 -107 -101 -230 -225 -179 -179 -227 -223 -236 -213 -7 7 -173 209 -369 448 -195 239 -359 436 -363 438 -4 1 -202 -193 -440 -431 l-432 -433 0 623 0 623 1170 0 1170 0 0 -571z m-845 -659 c334 -410 622 -760 638 -777 l31 -33 -997 0 c-1092 0 -1036 -3 -1101 58 -62 58 -66 79 -66 377 l0 270 433 435 c302 304 435 432 443 425 6 -5 285 -345 619 -755z m714 153 l131 -152 0 -323 c0 -291 -2 -327 -19 -363 -18 -39 -86 -109 -100 -103 -4 2 -122 142 -261 313 -139 171 -266 324 -281 340 l-29 31 207 207 c115 114 211 206 214 204 4 -1 66 -70 138 -154z"/>
<path d="M1947 2266 c-117 -43 -187 -152 -174 -268 11 -86 62 -159 142 -201 56 -30 164 -30 220 0 94 49 139 124 139 228 0 77 -20 128 -70 179 -64 64 -178 92 -257 62z m151 -61 c161 -68 161 -292 0 -360 -96 -40 -205 4 -249 100 -73 158 89 326 249 260z"/>
</g>
</svg>